<svg xmlns="http://www.w3.org/2000/svg" viewBox="0 0 32 32" width="32" height="32">
  <!-- Background circle with gradient -->
  <defs>
    <linearGradient id="bgGradient" x1="0%" y1="0%" x2="100%" y2="100%">
      <stop offset="0%" style="stop-color:#007cba;stop-opacity:1" />
      <stop offset="100%" style="stop-color:#0056b3;stop-opacity:1" />
    </linearGradient>
    <linearGradient id="waveGradient" x1="0%" y1="0%" x2="100%" y2="0%">
      <stop offset="0%" style="stop-color:#ffffff;stop-opacity:0.9" />
      <stop offset="100%" style="stop-color:#ffffff;stop-opacity:0.6" />
    </linearGradient>
  </defs>
  
  <!-- Background -->
  <circle cx="16" cy="16" r="15" fill="url(#bgGradient)" stroke="#003d5c" stroke-width="2"/>
  
  <!-- RSS signal waves -->
  <path d="M8 20 Q12 16 16 20" stroke="url(#waveGradient)" stroke-width="2.5" fill="none" stroke-linecap="round"/>
  <path d="M6 22 Q12 12 18 18 Q21 21 24 18" stroke="url(#waveGradient)" stroke-width="2" fill="none" stroke-linecap="round" opacity="0.8"/>
  <path d="M4 24 Q12 8 20 16 Q24 12 28 16" stroke="url(#waveGradient)" stroke-width="1.5" fill="none" stroke-linecap="round" opacity="0.6"/>
  
  <!-- RSS dot -->
  <circle cx="8" cy="24" r="2" fill="#ffffff"/>
  
  <!-- Tech elements - binary dots pattern -->
  <circle cx="22" cy="8" r="1" fill="#ffffff" opacity="0.7"/>
  <circle cx="25" cy="10" r="0.8" fill="#ffffff" opacity="0.5"/>
  <circle cx="20" cy="6" r="0.8" fill="#ffffff" opacity="0.5"/>
  <circle cx="27" cy="12" r="1" fill="#ffffff" opacity="0.6"/>
  
  <!-- Small circuit-like connection -->
  <path d="M22 8 L25 10 M20 6 L22 8" stroke="#ffffff" stroke-width="0.5" opacity="0.4"/>
</svg>